Coordinates
version=1
nRows=7
nColumns=63
inDegrees=yes

Units are S.I. units (second, meters, Newtons, ...)
If the header above contains a line with 'inDegrees', this indicates whether rotational values are in degrees (yes) or radians (no).

endheader
time	pelvis_tilt	pelvis_list	pelvis_rotation	pelvis_tx	pelvis_ty	pelvis_tz	hip_flexion_r	hip_adduction_r	hip_rotation_r	knee_angle_r	knee_angle_r_beta	ankle_angle_r	subtalar_angle_r	mtp_angle_r	hip_flexion_l	hip_adduction_l	hip_rotation_l	knee_angle_l	knee_angle_l_beta	ankle_angle_l	subtalar_angle_l	mtp_angle_l	L5_S1_Flex_Ext	L5_S1_Lat_Bending	L5_S1_axial_rotation	L4_L5_Flex_Ext	L4_L5_Lat_Bending	L4_L5_axial_rotation	L3_L4_Flex_Ext	L3_L4_Lat_Bending	L3_L4_axial_rotation	L2_L3_Flex_Ext	L2_L3_Lat_Bending	L2_L3_axial_rotation	L1_L2_Flex_Ext	L1_L2_Lat_Bending	L1_L2_axial_rotation	L1_T12_Flex_Ext	L1_T12_Lat_Bending	L1_T12_axial_rotation	Abs_r3	Abs_r2	Abs_r1	Abs_t1	Abs_t2	neck_flexion	neck_bending	neck_rotation	arm_flex_r	arm_add_r	arm_rot_r	elbow_flex_r	pro_sup_r	wrist_flex_r	wrist_dev_r	arm_flex_l	arm_add_l	arm_rot_l	elbow_flex_l	pro_sup_l	wrist_flex_l	wrist_dev_l
      0.00000000	     -1.18069844	     -4.65300872	     90.82639932	      0.20252883	      0.77545419	      0.88518377	      5.95550211	     -0.73645598	     -0.01416987	     14.05736014	      0.24534722	     35.99153386	      8.89057255	      0.00000000	      2.54741387	      1.14209265	     10.70082508	      5.48979941	      0.09581507	     33.54659138	    -13.22561764	      0.00000000	     -0.00161568	     -0.21496872	      2.02831414	     -0.00300049	     -0.28590840	      2.15508377	     -0.00265441	     -0.52267495	      2.15508377	     -0.00184656	     -0.52267495	      1.77477487	     -0.00150032	     -0.43836422	      1.64800523	     -0.00092320	     -0.33298655	      1.52123560	     -0.01154067	     -2.43176919	     11.28087473	      0.00000000	      0.00000000	     21.41615547	      6.56439521	    -11.53346565	      8.69469716	    -18.63772792	     54.82652781	     63.90420259	      3.23872194	    -18.34364432	     17.64985311	     26.99459208	     -9.32595313	     82.90990111	     53.32230429	     44.14976431	      0.85796448	      8.77613143
      0.01666667	     -1.39244452	     -4.47980516	     91.49222336	      0.20146688	      0.77574613	      0.88370641	      5.63000675	     -1.04142862	      0.01322786	     14.45299279	      0.25225231	     35.63019996	      7.63491578	      0.00000000	      2.36293442	      1.51183233	     11.27837541	      5.74228200	      0.10022173	     33.26603702	    -13.48487919	      0.00000000	     -0.00645981	     -0.23751596	      1.96375422	     -0.01199652	     -0.31589622	      2.08648886	     -0.01061283	     -0.57749630	      2.08648886	     -0.00738292	     -0.57749630	      1.71828494	     -0.00599858	     -0.48434254	      1.59555031	     -0.00369114	     -0.36791222	      1.47281567	     -0.04614180	     -2.68682800	     10.92181186	      0.00000000	      0.00000000	     21.19649226	      6.35576801	    -11.95492537	      7.56535252	    -18.02526247	     53.94120239	     63.66797996	      3.11799154	    -17.74181140	     15.75401828	     25.69523903	     -9.25351548	     79.70590594	     53.43167641	     42.91709581	      1.37551204	     11.26134590
      0.03333333	     -1.65709924	     -4.38723431	     91.72611620	      0.20118893	      0.77623476	      0.88243070	      5.46287184	     -1.26159303	      0.88612260	     14.74295673	      0.25731314	     35.45712512	      6.07529008	      0.00000000	      2.26425084	      1.82373201	     10.35853956	      5.87496829	      0.10253754	     33.51739759	    -11.96392582	      0.00000000	      0.00222403	     -0.26824975	      1.94817345	      0.00413024	     -0.35677217	      2.06993429	      0.00365385	     -0.65222244	      2.06993429	      0.00254184	     -0.65222244	      1.70465177	      0.00206523	     -0.54701489	      1.58289093	      0.00127081	     -0.41551886	      1.46113009	      0.01588600	     -3.03449483	     10.83515628	      0.00000000	      0.00000000	     20.70270367	      6.36116072	    -12.14149218	      7.29789023	    -17.68301134	     54.35778817	     63.14706449	      2.71119489	    -16.53387161	     14.47253127	     24.52787943	     -9.14587874	     76.62472500	     53.51558923	     43.53526385	      1.74685857	     14.53527602
      0.05000000	     -1.79224778	     -4.21488398	     92.22434915	      0.20060272	      0.77690551	      0.88156785	      5.23015649	     -1.22639510	      2.33573078	     14.97403858	      0.26134628	     35.29378281	      3.47354572	      0.00000000	      2.01612985	      2.11423386	     12.91008116	      5.74359784	      0.10024469	     32.80020093	    -14.68302065	      0.00000000	     -0.02119048	     -0.27972039	      1.79468803	     -0.03935283	     -0.37202812	      1.90685603	     -0.03481383	     -0.68011216	      1.90685603	     -0.02421859	     -0.68011216	      1.57035203	     -0.01967748	     -0.57040582	      1.45818402	     -0.01210824	     -0.43328689	      1.34601602	     -0.15136144	     -3.16425301	      9.98151642	      0.00000000	      0.00000000	     20.73449080	      6.62102127	    -11.49443147	      8.07837974	    -17.78244540	     56.75850029	     62.69149948	      2.67395026	    -14.81044983	     11.59361743	     22.92027780	     -9.22359518	     72.51119438	     53.82608382	     46.98629386	      2.18369508	     16.89547259
      0.06666667	     -1.84556662	     -4.17838434	     92.37533890	      0.20048260	      0.77750151	      0.88082977	      5.14491163	     -1.28150628	      2.39648004	     15.02256404	      0.26219320	     35.56904523	      3.46020852	      0.00000000	      2.00067351	      2.21253929	     13.09161169	      5.71504577	      0.09974637	     32.88915024	    -14.58269386	      0.00000000	     -0.01996437	     -0.28295870	      1.81286228	     -0.03707583	     -0.37633507	      1.92616617	     -0.03279946	     -0.68798578	      1.92616617	     -0.02281728	     -0.68798578	      1.58625449	     -0.01853891	     -0.57700938	      1.47295060	     -0.01140764	     -0.43830303	      1.35964671	     -0.14260348	     -3.20088541	     10.08259614	      0.00000000	      0.00000000	     20.70364686	      6.60912666	    -11.48745612	      7.99631509	    -17.81738306	     56.82311930	     62.55648339	      2.66967536	    -14.85181098	     11.57443502	     22.85168792	     -9.13885021	     72.41083850	     53.82684789	     46.95544836	      2.10713256	     16.88227769
      0.08333333	     -2.13127617	     -4.16436990	     92.92917176	      0.20007127	      0.77810578	      0.88000105	      5.07771426	     -1.57495281	      2.22858910	     15.14178172	      0.26427395	     36.02498913	      3.23703306	      0.00000000	      1.92129749	      2.51757404	     13.84844868	      5.49660370	      0.09593383	     32.91864807	    -14.40047025	      0.00000000	     -0.01864471	     -0.31701398	      1.65372136	     -0.03462509	     -0.42162859	      1.75707895	     -0.03063139	     -0.77078778	      1.75707895	     -0.02130904	     -0.77078778	      1.44700619	     -0.01731348	     -0.64645490	      1.34364861	     -0.01065359	     -0.49105465	      1.24029102	     -0.13317728	     -3.58612550	      9.19750211	      0.00000000	      0.00000000	     20.44501117	      6.64171215	    -11.16828960	      8.38843499	    -17.64169559	     57.72447344	     62.34607226	      2.64185618	    -15.35066458	     11.15472813	     22.13393607	     -9.58568114	     71.28919454	     54.61292973	     47.10217363	     -0.03260890	     17.15580442
      0.10000000	     -2.16530110	     -4.13036745	     93.05665295	      0.19980675	      0.77859113	      0.87960895	      5.08104739	     -1.61824417	      2.19846746	     15.24486909	      0.26607316	     36.36056776	      3.39524979	      0.00000000	      1.87457785	      2.57922656	     14.12262442	      5.39038373	      0.09407994	     32.96512247	    -14.45464336	      0.00000000	     -0.02161209	     -0.31340081	      1.60843727	     -0.04013582	     -0.41682308	      1.70896460	     -0.03550651	     -0.76200273	      1.70896460	     -0.02470046	     -0.76200273	      1.40738262	     -0.02006899	     -0.63908694	      1.30685529	     -0.01234915	     -0.48545786	      1.20632796	     -0.15437302	     -3.54525267	      8.94564559	      0.00000000	      0.00000000	     20.31750896	      6.66718404	    -10.66688354	      8.47327597	    -17.74578627	     57.91705334	     62.39067785	      2.61380461	    -15.67032489	     11.10497934	     21.87035974	     -9.63586795	     70.96988393	     54.89235519	     47.51372875	     -1.51096378	     16.98625726
